<?xml version="1.0" standalone="no"?>
<!DOCTYPE svg PUBLIC "-//W3C//DTD SVG 20010904//EN"
 "http://www.w3.org/TR/2001/REC-SVG-20010904/DTD/svg10.dtd">
<svg version="1.0" xmlns="http://www.w3.org/2000/svg"
 width="920.000000pt" height="768.000000pt" viewBox="0 0 920.000000 768.000000"
 preserveAspectRatio="xMidYMid meet">

<g transform="translate(0.000000,768.000000) scale(0.100000,-0.100000)"
fill="#000000" stroke="none">
<path d="M3222 7535 c-68 -35 -133 -99 -169 -166 l-28 -54 0 -1240 c0 -1358
-1 -1331 60 -1570 29 -114 46 -163 111 -315 13 -31 30 -42 162 -107 295 -143
663 -373 900 -561 l113 -90 126 -7 c119 -7 295 -2 391 11 l42 6 0 469 0 469
-636 0 -635 0 6 23 c18 60 91 191 149 263 158 200 404 322 695 344 162 11 294
-3 404 -45 16 -7 17 14 17 357 0 473 11 564 90 725 74 151 196 247 396 311
175 57 252 41 564 -114 l231 -114 -3 588 -3 587 -27 55 c-35 70 -107 143 -175
177 -50 24 -61 25 -151 20 -105 -6 -171 -25 -382 -112 -392 -161 -593 -203
-925 -192 -261 8 -417 45 -725 169 -292 117 -332 129 -445 135 -93 4 -103 3
-153 -22z m843 -1123 c203 -95 287 -337 188 -539 -36 -72 -135 -165 -205 -191
-113 -42 -228 -37 -330 14 -183 92 -264 310 -189 506 24 63 99 153 157 189
110 67 261 76 379 21z"/>
<path d="M5489 5956 c-87 -31 -174 -110 -212 -194 l-22 -47 -3 -1155 c-2 -778
0 -1202 8 -1300 73 -954 668 -1461 1675 -1427 654 22 1100 282 1334 778 91
193 143 398 162 641 6 83 9 570 7 1298 l-3 1165 -28 56 c-31 64 -103 136 -168
170 -64 32 -156 36 -258 10 -45 -11 -178 -58 -294 -105 -117 -46 -250 -96
-297 -110 -346 -105 -700 -110 -1039 -14 -58 16 -207 69 -331 118 -318 126
-433 151 -531 116z m723 -1111 c82 -17 138 -48 200 -112 89 -91 132 -226 110
-340 -28 -137 -106 -237 -230 -296 -61 -29 -76 -32 -162 -32 -133 1 -193 25
-281 115 -89 90 -113 150 -114 280 0 86 3 101 32 162 54 115 165 204 283 227
65 13 87 12 162 -4z m1495 -17 c159 -59 262 -224 250 -399 -19 -276 -311 -449
-559 -332 -123 59 -196 151 -224 284 -27 128 6 243 97 343 112 123 280 163
436 104z m87 -1750 c-33 -106 -118 -241 -211 -334 -117 -117 -253 -193 -428
-241 -94 -25 -113 -27 -310 -27 -195 0 -217 2 -306 26 -279 76 -479 236 -599
481 -28 56 -50 105 -50 109 0 5 430 8 956 8 l955 0 -7 -22z"/>
<path d="M2090 4089 c-456 -52 -921 -269 -1126 -528 -74 -92 -134 -222 -176
-376 -29 -107 -31 -311 -4 -400 56 -187 171 -316 386 -434 181 -99 267 -160
346 -244 87 -92 117 -157 122 -263 4 -93 -6 -136 -67 -271 -66 -147 -84 -227
-84 -378 0 -112 4 -143 27 -218 46 -154 111 -261 222 -368 93 -88 141 -119
307 -199 308 -149 574 -236 882 -291 114 -21 162 -24 385 -24 227 0 268 3 368
23 447 91 801 322 1030 676 102 157 216 437 261 641 131 598 -64 1156 -583
1669 -422 416 -1148 842 -1612 945 -211 47 -482 63 -684 40z m698 -520 c69
-34 105 -72 138 -144 49 -108 37 -217 -34 -310 -76 -99 -219 -141 -340 -101
-107 36 -190 145 -200 262 -7 96 19 166 88 235 66 66 117 87 216 88 60 1 80
-4 132 -30z m-1093 -259 c60 -29 108 -77 142 -143 37 -71 38 -178 4 -254 -48
-107 -156 -176 -276 -177 -270 -2 -405 323 -214 514 66 66 132 91 225 87 48
-3 87 -11 119 -27z m1931 -167 c33 -11 67 -34 105 -72 64 -65 89 -124 89 -212
0 -169 -131 -300 -300 -300 -123 -1 -217 57 -270 165 -59 119 -37 258 56 349
40 40 79 64 124 78 45 13 145 9 196 -8z m671 -886 c58 -30 113 -86 144 -147
18 -35 23 -62 23 -120 1 -125 -56 -220 -168 -277 -42 -22 -65 -27 -131 -27
-68 -1 -88 3 -132 26 -245 129 -223 467 38 562 62 23 162 15 226 -17z m-1788
-727 c73 -39 124 -93 160 -169 22 -48 26 -69 26 -151 0 -82 -4 -103 -26 -151
-36 -75 -87 -130 -156 -166 -72 -38 -99 -44 -181 -44 -99 0 -173 31 -248 105
-78 78 -107 147 -107 256 0 275 289 449 532 320z"/>
</g>
</svg>
