<?xml version="1.0" standalone="no"?>
<!DOCTYPE svg PUBLIC "-//W3C//DTD SVG 20010904//EN"
 "http://www.w3.org/TR/2001/REC-SVG-20010904/DTD/svg10.dtd">
<svg version="1.0" xmlns="http://www.w3.org/2000/svg"
 width="512.000000pt" height="512.000000pt" viewBox="0 0 512.000000 512.000000"
 preserveAspectRatio="xMidYMid meet">

<g transform="translate(0.000000,512.000000) scale(0.100000,-0.100000)"
fill="#000000" stroke="none">
<path d="M1480 4954 c-296 -38 -560 -154 -765 -336 -238 -212 -390 -476 -452
-785 -26 -134 -24 -396 5 -530 48 -221 157 -452 284 -596 l33 -39 57 49 c31
26 57 50 57 53 1 3 -25 40 -57 82 -314 419 -320 1007 -15 1437 61 85 199 223
286 285 318 225 725 284 1095 161 242 -81 433 -221 625 -460 275 -342 435
-734 478 -1176 32 -334 -33 -560 -219 -761 -56 -60 -189 -155 -256 -183 -49
-21 -76 -49 -76 -82 0 -15 23 -63 52 -110 47 -73 58 -85 98 -99 154 -55 193
-71 265 -107 44 -22 115 -62 157 -89 l78 -50 -6 -53 c-4 -29 -4 -73 0 -97 l7
-44 75 16 75 16 2 70 c4 122 80 235 195 287 90 41 227 25 307 -36 18 -14 16
-15 -38 -27 -122 -25 -266 -130 -324 -236 l-23 -41 73 -32 72 -32 15 23 c35
54 96 109 149 135 46 23 69 28 131 28 93 0 162 -30 234 -104 l48 -49 -56 -12
c-71 -15 -158 -59 -219 -111 -76 -66 -77 -70 -7 -124 l61 -47 45 42 c68 62
124 85 214 85 75 0 134 -19 185 -58 18 -14 16 -15 -38 -27 -187 -38 -347 -205
-380 -393 -43 -254 144 -510 403 -550 311 -48 591 233 543 544 -24 150 -30
157 -507 638 -237 238 -457 453 -489 477 -90 67 -153 87 -275 89 l-104 1 -45
70 c-106 164 -196 387 -228 569 -9 50 -20 183 -25 298 -11 243 -29 373 -75
553 -95 371 -267 691 -533 990 -79 89 -193 191 -282 251 -137 93 -329 172
-505 208 -78 16 -332 28 -405 19z m1732 -2591 c37 -113 100 -245 167 -352 l52
-84 -23 -15 c-30 -20 -100 -90 -120 -120 l-16 -23 -73 47 c-93 59 -232 127
-346 168 -48 17 -88 36 -88 43 0 6 35 34 77 62 104 70 215 183 280 285 29 47
55 83 57 81 2 -2 16 -43 33 -92z m1390 -1351 c65 -28 133 -94 165 -161 23 -46
28 -69 28 -131 0 -90 -23 -146 -85 -214 -126 -137 -334 -137 -460 0 -132 143
-114 342 42 467 84 67 211 83 310 39z"/>
<path d="M1517 4642 c-26 -26 -47 -52 -47 -57 0 -5 21 -31 47 -57 l48 -48 -63
-62 -62 -63 -88 88 c-48 48 -92 87 -98 87 -12 0 -104 -92 -104 -105 0 -5 39
-49 87 -97 l88 -88 -63 -62 -62 -63 -88 88 c-48 48 -92 87 -98 87 -12 0 -104
-92 -104 -105 0 -5 39 -49 87 -97 l88 -88 -63 -62 -62 -63 -88 88 c-48 48 -92
87 -98 87 -12 0 -104 -92 -104 -105 0 -5 39 -49 87 -97 l88 -88 -63 -62 -62
-63 -48 48 c-26 26 -52 47 -58 47 -12 0 -104 -92 -104 -105 0 -5 21 -31 47
-57 l47 -48 -48 -49 c-27 -27 -47 -53 -45 -58 2 -4 28 -30 57 -57 l53 -49 50
49 49 49 62 -63 63 -62 -48 -48 c-26 -26 -47 -52 -47 -57 0 -6 25 -32 56 -59
l56 -49 49 49 49 49 62 -63 63 -62 -89 -89 c-98 -99 -96 -89 -35 -150 61 -61
51 -63 150 34 l89 89 48 -47 c26 -26 52 -47 58 -47 12 0 104 92 104 105 0 5
-21 31 -47 57 l-48 48 63 63 62 62 62 -62 63 -63 -48 -48 c-26 -26 -47 -51
-47 -55 0 -7 62 -69 98 -99 10 -9 25 0 63 38 l49 48 60 -59 c38 -38 58 -65 55
-75 -7 -23 91 -124 113 -115 10 4 32 -10 64 -42 l48 -47 42 39 c23 22 48 45
55 52 20 17 17 23 -34 75 l-48 48 63 63 62 62 62 -62 63 -63 -48 -48 c-51 -52
-54 -58 -34 -75 7 -7 32 -30 55 -52 l42 -39 50 49 50 49 130 -129 130 -130 57
58 58 57 -130 130 -130 130 63 62 62 63 88 -88 c48 -48 92 -87 98 -87 12 0
104 92 104 105 0 5 -39 49 -87 97 l-87 88 47 48 c26 26 47 52 47 58 0 12 -92
104 -105 104 -5 0 -31 -21 -57 -47 l-48 -48 -63 63 -62 62 62 62 63 63 49 -49
50 -49 53 49 c29 27 55 53 57 57 2 5 -18 31 -45 58 l-48 49 47 48 c26 26 47
52 47 58 0 12 -92 104 -105 104 -5 0 -31 -21 -57 -47 l-48 -48 -62 63 -63 62
48 48 c26 26 47 52 47 58 0 12 -92 104 -105 104 -5 0 -31 -21 -57 -47 l-48
-48 -62 63 -63 62 88 88 c48 48 87 92 87 98 0 12 -92 104 -105 104 -5 0 -49
-39 -97 -87 l-88 -88 -62 63 -63 62 48 48 c26 26 47 52 47 58 0 12 -92 104
-105 104 -5 0 -31 -21 -57 -47 l-48 -48 -62 63 -63 62 48 48 c26 26 47 52 47
58 0 12 -92 104 -105 104 -5 0 -31 -21 -57 -47 l-48 -47 -48 47 c-26 26 -52
47 -58 47 -5 0 -31 -22 -57 -48z m228 -342 l60 -60 -63 -63 -62 -62 -62 62
-63 63 60 60 c33 33 62 60 65 60 3 0 32 -27 65 -60z m-240 -240 l60 -60 -63
-63 -62 -62 -62 62 -63 63 60 60 c33 33 62 60 65 60 3 0 32 -27 65 -60z m480
0 l60 -60 -63 -63 -62 -62 -62 62 -63 63 60 60 c33 33 62 60 65 60 3 0 32 -27
65 -60z m-720 -240 l60 -60 -63 -63 -62 -62 -62 62 -63 63 60 60 c33 33 62 60
65 60 3 0 32 -27 65 -60z m480 0 l60 -60 -63 -63 -62 -62 -62 62 -63 63 60 60
c33 33 62 60 65 60 3 0 32 -27 65 -60z m480 0 l60 -60 -63 -63 -62 -62 -62 62
-63 63 60 60 c33 33 62 60 65 60 3 0 32 -27 65 -60z m-1200 -240 l60 -60 -63
-63 -62 -62 -62 62 -63 63 60 60 c33 33 62 60 65 60 3 0 32 -27 65 -60z m480
0 l60 -60 -63 -63 -62 -62 -62 62 -63 63 60 60 c33 33 62 60 65 60 3 0 32 -27
65 -60z m480 0 l60 -60 -63 -63 -62 -62 -62 62 -63 63 60 60 c33 33 62 60 65
60 3 0 32 -27 65 -60z m480 0 l60 -60 -63 -63 -62 -62 -62 62 -63 63 60 60
c33 33 62 60 65 60 3 0 32 -27 65 -60z m-1200 -240 l60 -60 -63 -63 -62 -62
-62 62 -63 63 60 60 c33 33 62 60 65 60 3 0 32 -27 65 -60z m480 0 l60 -60
-63 -63 -62 -62 -62 62 -63 63 60 60 c33 33 62 60 65 60 3 0 32 -27 65 -60z
m480 0 l60 -60 -63 -63 -62 -62 -62 62 -63 63 60 60 c33 33 62 60 65 60 3 0
32 -27 65 -60z m-240 -240 l60 -60 -63 -63 -62 -62 -62 62 -63 63 60 60 c33
33 62 60 65 60 3 0 32 -27 65 -60z m480 0 l60 -60 -63 -63 -62 -62 -62 62 -63
63 60 60 c33 33 62 60 65 60 3 0 32 -27 65 -60z"/>
<path d="M1240 2634 c-14 -2 -56 -9 -95 -15 -226 -37 -455 -158 -631 -333
-170 -170 -275 -363 -331 -608 -23 -102 -23 -374 0 -476 112 -491 475 -847
962 -943 42 -8 131 -14 220 -14 162 1 262 16 390 62 78 28 260 119 276 139 8
10 0 29 -31 73 -22 34 -43 61 -46 61 -3 0 -36 -17 -72 -39 -71 -40 -182 -87
-230 -97 -27 -5 -36 1 -106 83 -142 163 -219 316 -251 500 -20 116 -19 212 5
311 20 85 53 162 70 162 19 0 198 -84 285 -133 50 -28 156 -93 237 -143 l146
-92 41 66 c38 62 40 68 23 80 -9 7 -92 60 -184 117 -152 95 -320 187 -423 230
l-40 16 45 40 c62 54 162 113 240 141 57 20 83 22 210 22 140 -1 149 -2 270
-40 l125 -39 18 -55 c10 -30 24 -103 30 -162 l11 -108 80 0 79 0 -7 84 c-41
539 -426 978 -958 1092 -70 15 -307 27 -358 18z m294 -171 c13 -7 0 -21 -71
-73 -178 -132 -371 -337 -490 -522 l-56 -87 -96 6 c-53 3 -100 9 -105 13 -4 5
3 57 18 117 23 96 42 211 61 356 l6 47 87 44 c175 87 310 117 503 112 70 -2
134 -8 143 -13z m314 -107 c91 -46 174 -110 264 -204 67 -71 152 -181 145
-189 -2 -1 -37 7 -78 20 -63 19 -98 22 -229 22 -135 0 -165 -3 -230 -23 -143
-46 -247 -108 -356 -214 l-71 -69 -97 25 c-54 13 -100 26 -102 29 -16 16 200
282 307 378 140 124 330 259 366 259 8 0 44 -15 81 -34z m-1248 -302 c-11 -55
-30 -134 -41 -177 -24 -86 -21 -84 -121 -89 -54 -3 -57 -2 -52 17 12 36 86
179 117 225 36 52 108 132 114 126 2 -2 -5 -48 -17 -102z m194 -424 c45 0 45
9 -12 -130 -84 -203 -131 -423 -139 -648 l-6 -153 -34 33 c-73 70 -191 257
-217 344 -4 14 9 45 45 105 64 106 135 247 184 368 l39 93 50 -6 c28 -3 68 -6
90 -6z m-324 -12 c0 -22 -133 -287 -142 -282 -9 6 -10 169 0 234 7 42 9 45 42
51 61 11 100 10 100 -3z m641 -39 c49 -11 89 -23 89 -26 0 -2 -13 -41 -29 -86
-41 -118 -55 -218 -48 -345 15 -239 99 -453 253 -643 l65 -79 -78 0 c-155 0
-324 40 -463 110 -106 53 -100 39 -100 229 0 239 34 442 106 641 41 113 91
220 105 220 6 0 51 -9 100 -21z"/>
<path d="M2615 1270 c-203 -41 -361 -184 -431 -390 -14 -40 -19 -84 -19 -160
0 -76 5 -120 19 -160 63 -187 189 -313 376 -376 41 -14 82 -19 165 -18 96 0
119 4 180 29 87 34 103 34 190 0 61 -25 84 -29 180 -29 83 -1 124 4 165 18
187 63 313 189 376 376 26 76 26 244 0 320 -53 158 -152 273 -290 340 -149 72
-305 78 -458 16 l-68 -27 -65 26 c-108 43 -218 55 -320 35z m195 -161 c27 -6
50 -13 50 -16 0 -3 -11 -19 -26 -35 -32 -39 -67 -108 -89 -178 -15 -47 -26
-61 -77 -99 -50 -37 -66 -43 -107 -43 -60 0 -72 6 -146 81 l-60 61 24 45 c43
81 151 161 248 184 54 13 124 13 183 0z m634 -27 c90 -42 149 -100 190 -186
19 -39 37 -86 40 -104 l6 -33 -38 30 c-128 103 -292 99 -415 -9 -80 -70 -152
-60 -246 34 l-66 66 24 45 c43 81 149 160 248 185 71 18 186 5 257 -28z m46
-386 c14 -3 54 -35 90 -71 l65 -65 -24 -45 c-33 -62 -99 -121 -179 -158 -98
-47 -226 -47 -324 0 -92 43 -151 101 -192 187 -19 39 -37 86 -40 104 l-6 33
38 -30 c128 -103 292 -99 415 9 37 32 86 51 117 45 8 -2 26 -6 40 -9z m-1045
-97 c68 -31 162 -31 229 -1 27 12 50 21 51 20 1 -2 10 -28 20 -58 23 -71 57
-139 89 -178 15 -16 26 -32 26 -35 0 -13 -120 -29 -180 -23 -86 8 -192 60
-249 122 -44 47 -95 145 -105 202 l-6 33 38 -30 c20 -17 60 -40 87 -52z"/>
</g>
</svg>
