<?xml version="1.0" standalone="no"?>
<!DOCTYPE svg PUBLIC "-//W3C//DTD SVG 20010904//EN"
 "http://www.w3.org/TR/2001/REC-SVG-20010904/DTD/svg10.dtd">
<svg version="1.0" xmlns="http://www.w3.org/2000/svg"
 width="1200.000000pt" height="1200.000000pt" viewBox="0 0 1200.000000 1200.000000"
 preserveAspectRatio="xMidYMid meet">

<g transform="translate(0.000000,1200.000000) scale(0.100000,-0.100000)"
fill="#000000" stroke="none">
<path d="M3692 8410 c-524 -141 -731 -768 -393 -1193 101 -127 241 -215 411
-258 72 -18 103 -21 205 -16 138 6 201 23 325 88 99 51 224 169 279 261 146
250 146 537 0 786 -46 77 -179 209 -259 255 -114 66 -205 90 -360 94 -111 2
-148 -1 -208 -17z"/>
<path d="M6775 4270 c-146 -38 -264 -108 -366 -218 -79 -84 -122 -156 -163
-269 -29 -83 -31 -96 -31 -233 0 -108 5 -161 18 -209 56 -203 201 -377 391
-470 382 -188 835 -27 1016 360 65 139 82 347 41 502 -69 264 -277 469 -545
537 -104 26 -262 26 -361 0z"/>
</g>
</svg>
